PathFileType	4	(X/Y/Z)	C:/Users/beibeiliu/ov580/test_trc/User1\sequence.23_training_dense_right.trc
DataRate	CameraRate	NumFrames	NumMarkers	Units	OrigDataRate	OrigDataStartFrame	OrigNumFrames
120	120	10	19	mm	120	91	240
Frame#	Time	ThumbCMC			ThumbMCP			ThumbIP			ThumbTip			IndexMCP			IndexPIP			IndexTip			MiddleMCP			MiddlePIP			MiddleTip			RingMCP			RingPIP			RingTip			PinkyMCP			PinkyPIP			PinkyTip			BackHand1			BackHand2			BackHand3	
		X0	Y0	Z0	X1	Y1	Z1	X2	Y2	Z2	X3	Y3	Z3	X4	Y4	Z4	X5	Y5	Z5	X6	Y6	Z6	X7	Y7	Z7	X8	Y8	Z8	X9	Y9	Z9	X10	Y10	Z10	X11	Y11	Z11	X12	Y12	Z12	X13	Y13	Z13	X14	Y14	Z14	X15	Y15	Z15	X16	Y16	Z16	X17	Y17	Z17	X18	Y18	Z18	
90	0.75	143.521	74.2852	57.5773	122.326	69.4201	19.7403	120.894	56.0744	-9.06823	122.518	27.0737	-20.3848	164.779	71.6651	-17.7266	136.435	58.7255	-20.9295	132.768	60.3566	14.2918	170.91	41.6532	-19.2436	135.326	41.4411	-19.4614	137.245	42.5631	18.9895	167.882	18.7803	-15.5244	132.47	21.803	-13.296	131.25	26.1417	19.8199	182.116	-1.36869	3.91836	186.146	-8.00324	-15.6445	195.926	-6.90008	-33.7784	190.204	23.6072	43.4871	182.041	22.8922	81.8208	185.955	58.6883	60.205	
91	0.758333	146.056	72.519	57.2146	122.931	70.8972	19.3644	118.712	56.7847	-2.59353	119.322	30.1046	-20.1102	165.569	67.5682	-17.6733	132.753	61.6874	-18.9236	133.491	61.918	15.5601	168.236	41.93	-20.5078	132.398	41.4191	-16.872	138.49	44.3589	20.5469	165.314	20.4295	-17.108	130.076	20.2611	-12.9886	129.353	28.5934	17.1095	179.625	-6.71824	4.78762	182.853	-10.8785	-16.6828	192.44	-13.6599	-33.2169	190.35	21.7875	43.2148	182.943	20.0852	80.2393	183.976	57.0688	62.1584	
92	0.766667	147.332	74.4079	55.2514	125.669	68.4889	22.8392	118.413	59.0782	-4.15329	121.083	31.7306	-16.1354	166.118	69.145	-16.8863	133.195	62.7723	-19.572	134.379	61.4522	15.9294	168.732	40.9964	-20.6267	133.604	43.8709	-18.1297	137.667	41.6252	19.1767	164.027	20.1202	-15.7868	131.875	20.7608	-16.503	129.835	27.8085	21.4653	177.079	-9.64532	2.26611	178.354	-12.9053	-11.2942	188.32	-20.6671	-33.4754	188.757	19.0541	45.2889	181.588	17.3186	81.9707	183.468	54.4356	61.5029	
93	0.775	149.63	74.2853	56.2298	124.916	72.1615	22.438	122.516	58.9517	-7.32285	118.062	32.3632	-21.2029	169.409	66.4055	-16.5268	136.887	64.4004	-22.2959	136.114	61.711	16.15	170.811	41.0104	-18.9921	133.193	40.6419	-17.009	140.436	46.2665	20.2388	161.866	17.4645	-15.4052	131.44	22.4406	-15.201	127.147	32.4693	15.7754	172.419	-10.1661	4.72743	173.595	-18.7119	-10.902	181.923	-26.3226	-32.0389	187.324	14.6589	44.6544	178.147	20.2524	83.2578	187.792	52.8487	59.6236	
94	0.783333	150.189	73.6611	58.8755	126.656	73.4554	23.9334	122.346	60.6376	-7.47843	120.906	30.631	-18.6753	170.554	61.7504	-17.4361	137.36	61.6496	-19.8732	135.564	66.6727	14.2022	169.992	37.7979	-20.3164	134.68	42.6031	-17.311	142.253	46.343	20.9711	160.768	14.6339	-15.571	129.701	21.8973	-13.4294	126.487	30.2956	18.8696	169.774	-8.41992	7.46649	170.297	-17.9066	-11.2607	178.876	-30.1928	-32.7174	184.371	13.3801	45.6114	178.618	15.9796	78.3737	187.922	52.6767	63.7149	
95	0.791667	153.333	76.505	55.6173	129.185	75.8656	21.3259	124.288	59.6826	-9.336	121.755	33.3928	-16.4384	173.99	63.3739	-16.0871	139.654	62.131	-20.2315	137.98	66.8282	13.8805	170.501	32.9992	-18.3835	135.704	43.694	-19.1591	141.532	45.4273	19.9123	161.289	15.5072	-13.6249	129.495	25.4441	-13.6195	127.952	33.4797	19.6031	167.604	-10.8439	6.05965	165.955	-21.7414	-12.4059	172.415	-31.1616	-29.9752	185.371	13.9683	46.8315	178.76	15.3109	80.0276	189.3	46.8237	59.2304	
96	0.8	158.564	77.9009	53.7068	136.012	72.4983	19.2545	127.287	61.3286	-5.46118	121.016	33.9031	-17.4811	176.091	62.4651	-18.045	144.339	65.6168	-23.3033	140.257	63.4037	13.573	168.132	35.8097	-22.8511	135.723	42.5673	-18.1197	142.372	49.0683	18.3684	158.562	12.2249	-12.6392	127.112	28.7513	-10.1037	132.187	39.6803	20.7634	162.657	-15.7132	9.11609	163.678	-20.5843	-13.5752	169.869	-33.6784	-27.0246	183.054	13.2081	47.573	178.864	16.8182	78.9246	190.556	46.7107	62.3913	
97	0.808333	163.433	77.6079	51.8489	141.434	74.3114	19.2871	129.676	65.8928	-7.8312	122.325	35.9416	-17.237	179.807	55.4674	-19.0747	148.133	62.9192	-22.2356	146.473	65.4055	13.112	170.119	33.3293	-24.0173	140.311	46.8865	-20.8086	148.047	49.7683	19.0554	155.285	12.7519	-15.9212	128.127	27.452	-12.8016	131.553	37.1562	19.989	160.241	-13.6599	7.44873	156.414	-26.3583	-12.0245	162.903	-38.9774	-29.7702	181.222	7.68276	44.8904	178.82	13.2846	78.5389	193.661	43.7412	58.8733	
98	0.816667	169.925	76.4992	54.4795	146.14	78.4076	20.1946	136.647	64.7662	-5.3898	122.93	38.7814	-19.4335	183.44	49.42	-19.1401	152.512	59.5726	-23.0117	152.789	69.3235	12.7321	170.641	26.4357	-22.9528	141.504	46.6801	-19.2081	149.963	51.9773	15.8121	155.706	9.4177	-12.4655	130.167	29.9766	-14.0487	133.244	40.6207	17.1177	151.929	-17.2366	11.3669	152.747	-23.584	-12.6963	154.376	-36.4041	-29.4725	179.53	7.25563	47.5683	174.904	10.6352	82.291	196.512	39.4235	56.7952	
99	0.825	177.804	73.3416	52.5786	153.448	76.1942	19.8834	141.963	65.0852	-8.40308	124.816	41.3469	-20.1127	187.297	47.2961	-18.8167	159.429	60.2638	-25.8422	158.264	66.553	11.9488	172.733	24.9967	-22.8625	145.861	44.4592	-22.1514	154.531	51.7049	15.4969	153.084	9.62795	-13.0168	128.903	31.9589	-11.3773	134.367	40.5726	19.4037	146.482	-18.047	9.90012	141.381	-25.5128	-7.66576	146.77	-37.4148	-27.1323	175.856	2.37855	45.9966	173.019	6.89432	82.6582	196.368	34.176	58.5304	
